<svg width="376" height="309" viewBox="0 0 376 309" fill="none" xmlns="http://www.w3.org/2000/svg">
<g clip-path="url(#clip0_59_69)">
<path d="M100.789 254.385C97.804 255.435 94.5988 255.698 91.4825 255.149C88.3662 254.599 85.4438 253.256 82.9969 251.247C76.765 246.011 74.8112 237.385 73.2214 229.397L68.519 205.772L78.3638 212.557C85.4436 217.437 92.6828 222.474 97.5848 229.542C102.487 236.611 104.627 246.26 100.688 253.908" fill="#E6E6E6"/>
<path d="M99.9476 282.989C100.944 275.723 101.969 268.364 101.27 261.021C100.649 254.499 98.6613 248.129 94.6148 242.906C92.4669 240.139 89.8533 237.768 86.8915 235.9C86.1192 235.412 85.4084 236.637 86.1774 237.123C91.3021 240.365 95.2658 245.153 97.4972 250.796C99.9617 257.071 100.357 263.911 99.9327 270.577C99.6759 274.608 99.1316 278.613 98.5831 282.612C98.5399 282.793 98.5668 282.984 98.6586 283.145C98.7503 283.307 98.8999 283.428 99.0773 283.484C99.2582 283.532 99.451 283.508 99.614 283.415C99.7769 283.323 99.8968 283.169 99.9476 282.989Z" fill="#F2F2F2"/>
<path d="M90.3503 270.132C89.07 272.08 87.3102 273.665 85.2403 274.735C83.1704 275.804 80.8603 276.322 78.5325 276.238C72.5501 275.954 67.5627 271.774 63.073 267.806L49.7936 256.069L58.5824 255.648C64.9028 255.345 71.3862 255.062 77.4061 257.014C83.426 258.965 88.9779 263.66 90.0787 269.898" fill="#E6E6E6"/>
<path d="M102.764 287.165C97.9679 278.67 92.405 269.229 82.4651 266.212C79.7013 265.375 76.8033 265.076 73.9272 265.329C73.0207 265.407 73.247 266.806 74.1519 266.728C78.9729 266.327 83.7847 267.602 87.7771 270.337C91.6189 272.954 94.6101 276.594 97.1419 280.453C98.6927 282.817 100.082 285.281 101.471 287.742C101.915 288.529 103.213 287.961 102.764 287.165V287.165Z" fill="#F2F2F2"/>
<path d="M220.968 227.486C226.852 229.556 233.168 230.075 239.31 228.992C245.452 227.909 251.212 225.261 256.034 221.302C268.316 210.983 272.167 193.982 275.301 178.239C278.39 162.718 281.479 147.197 284.568 131.676L265.165 145.05C251.212 154.668 236.945 164.594 227.283 178.525C217.622 192.456 213.405 211.473 221.168 226.546" fill="#E6E6E6"/>
<path d="M222.627 283.86C220.663 269.541 218.644 255.037 220.021 240.564C221.245 227.711 225.162 215.156 233.137 204.863C237.37 199.409 242.521 194.736 248.359 191.055C249.881 190.093 251.282 192.508 249.766 193.466C239.666 199.855 231.854 209.291 227.456 220.412C222.599 232.779 221.819 246.261 222.656 259.398C223.162 267.343 224.235 275.235 225.316 283.118C225.401 283.474 225.348 283.85 225.167 284.169C224.987 284.487 224.692 284.726 224.342 284.835C223.986 284.931 223.606 284.883 223.285 284.7C222.963 284.518 222.727 284.216 222.627 283.86Z" fill="#F2F2F2"/>
<path d="M241.542 258.521C244.065 262.36 247.534 265.484 251.613 267.592C255.692 269.7 260.245 270.72 264.833 270.555C276.623 269.995 286.453 261.757 295.301 253.937L321.473 230.804L304.152 229.975C291.695 229.378 278.917 228.821 267.053 232.667C255.189 236.512 244.247 245.767 242.077 258.06" fill="#E6E6E6"/>
<path d="M217.077 292.092C226.529 275.349 237.493 256.742 257.083 250.795C262.53 249.147 268.241 248.556 273.91 249.055C275.696 249.21 275.25 251.966 273.467 251.813C263.965 251.023 254.482 253.534 246.614 258.924C239.042 264.084 233.147 271.256 228.157 278.863C225.1 283.522 222.363 288.379 219.624 293.229C218.749 294.779 216.192 293.66 217.077 292.092Z" fill="#F2F2F2"/>
<path d="M290.031 65.4248L371.414 48.3564L372.471 48.1351C373.01 48.0213 373.57 48.062 374.086 48.2526C374.603 48.4431 375.055 48.7757 375.391 49.2121C375.727 49.6485 375.933 50.171 375.986 50.7196C376.038 51.2681 375.935 51.8204 375.688 52.3128L343.028 117.725C342.817 118.145 342.508 118.508 342.127 118.784C341.746 119.06 341.305 119.24 340.84 119.309C340.373 119.379 339.897 119.334 339.452 119.178C339.007 119.022 338.606 118.76 338.285 118.415L316.011 94.6225C315.852 94.449 315.66 94.3102 315.445 94.2149C315.23 94.1195 314.998 94.0697 314.764 94.0685C314.444 94.0621 314.13 94.1427 313.853 94.3016C313.576 94.4606 313.347 94.6919 313.192 94.9709L308.55 103.445C308.254 104.01 307.777 104.459 307.196 104.722C306.614 104.984 305.962 105.044 305.343 104.893L305.32 104.888C304.693 104.751 304.13 104.407 303.722 103.911C303.314 103.416 303.084 102.797 303.07 102.155L302.266 82.5257C302.257 82.2808 302.197 82.0405 302.091 81.8196C301.977 81.601 301.822 81.4066 301.634 81.2473L288.765 70.5443C288.342 70.1925 288.027 69.7285 287.855 69.2056C287.684 68.6826 287.663 68.1218 287.795 67.5874C287.927 67.053 288.207 66.5667 288.602 66.1842C288.998 65.8018 289.493 65.5386 290.031 65.4248V65.4248ZM289.509 69.6454L302.377 80.3483C302.545 80.4852 302.697 80.6405 302.83 80.8114L371.55 50.1039C371.611 50.0761 371.674 50.0543 371.739 50.0389C372.004 49.9723 372.283 50.0004 372.529 50.1183C372.776 50.2363 372.973 50.4367 373.087 50.6848C373.202 50.933 373.226 51.2134 373.155 51.4774C373.085 51.7415 372.925 51.9726 372.702 52.1309L316.105 93.2336C316.39 93.3841 316.647 93.5828 316.864 93.8207L339.138 117.613C339.332 117.819 339.572 117.975 339.838 118.069C340.105 118.162 340.39 118.189 340.669 118.149C340.949 118.108 341.214 118 341.443 117.835C341.672 117.67 341.858 117.452 341.985 117.199L374.645 51.7871C374.791 51.4915 374.851 51.1609 374.818 50.8328C374.786 50.5046 374.662 50.1923 374.461 49.9312C374.259 49.6702 373.989 49.471 373.68 49.3564C373.371 49.2417 373.036 49.2162 372.714 49.2827L371.631 49.5102L290.274 66.5724C289.951 66.6405 289.653 66.7981 289.416 67.0275C289.178 67.2568 289.01 67.5485 288.93 67.8691C288.85 68.1898 288.862 68.5264 288.965 68.8406C289.067 69.1547 289.256 69.4336 289.509 69.6453L289.509 69.6454Z" fill="#CCCCCC"/>
<path d="M290.031 65.4248L371.414 48.3564L372.471 48.1351C373.01 48.0213 373.57 48.062 374.086 48.2526C374.603 48.4431 375.055 48.7757 375.391 49.2121C375.727 49.6485 375.933 50.171 375.986 50.7196C376.038 51.2681 375.935 51.8204 375.688 52.3128L343.028 117.725C342.817 118.145 342.508 118.508 342.127 118.784C341.746 119.06 341.305 119.24 340.84 119.309C340.373 119.379 339.897 119.334 339.452 119.178C339.007 119.022 338.606 118.76 338.285 118.415L316.011 94.6225C315.852 94.449 315.66 94.3102 315.445 94.2149C315.23 94.1195 314.998 94.0697 314.764 94.0685C314.444 94.0621 314.13 94.1427 313.853 94.3016C313.576 94.4606 313.347 94.6919 313.192 94.9709L308.55 103.445C308.254 104.01 307.777 104.459 307.196 104.722C306.614 104.984 305.962 105.044 305.343 104.893L305.32 104.888C304.693 104.751 304.13 104.407 303.722 103.911C303.314 103.416 303.084 102.797 303.07 102.155L302.266 82.5257C302.257 82.2808 302.197 82.0405 302.091 81.8196C301.977 81.601 301.822 81.4066 301.634 81.2473L288.765 70.5443C288.342 70.1925 288.027 69.7285 287.855 69.2056C287.684 68.6826 287.663 68.1218 287.795 67.5874C287.927 67.053 288.207 66.5667 288.602 66.1842C288.998 65.8018 289.493 65.5386 290.031 65.4248V65.4248ZM289.509 69.6454L302.377 80.3483C302.545 80.4852 302.697 80.6405 302.83 80.8114C302.95 80.9634 303.053 81.1278 303.138 81.3018C303.227 81.4798 303.297 81.6667 303.347 81.8595L303.346 81.8652C303.398 82.066 303.428 82.2721 303.434 82.4795L304.237 102.108C304.243 102.494 304.379 102.867 304.624 103.165C304.869 103.463 305.208 103.668 305.585 103.748L305.597 103.75C305.968 103.845 306.361 103.811 306.711 103.655C307.061 103.498 307.348 103.228 307.526 102.887L312.169 94.4078C312.408 93.9716 312.754 93.6039 313.175 93.3395C313.596 93.0751 314.078 92.9228 314.574 92.897L314.58 92.8983C314.647 92.8955 314.713 92.8927 314.778 92.8955C315.241 92.8985 315.697 93.0145 316.105 93.2336C316.39 93.3841 316.647 93.5827 316.864 93.8207L339.138 117.613C339.332 117.819 339.572 117.975 339.838 118.069C340.105 118.162 340.39 118.189 340.669 118.149C340.949 118.108 341.214 118 341.443 117.835C341.672 117.67 341.858 117.451 341.985 117.199L374.645 51.7871C374.791 51.4915 374.851 51.1609 374.818 50.8328C374.786 50.5046 374.662 50.1923 374.461 49.9312C374.259 49.6702 373.989 49.471 373.68 49.3564C373.371 49.2417 373.036 49.2162 372.714 49.2827L371.631 49.5102L290.274 66.5724C289.951 66.6405 289.653 66.7981 289.416 67.0275C289.178 67.2568 289.01 67.5485 288.93 67.8691C288.85 68.1898 288.862 68.5264 288.965 68.8406C289.067 69.1547 289.256 69.4336 289.509 69.6453L289.509 69.6454Z" fill="#3F3D56"/>
<path d="M302.57 80.9262L303.047 81.9951L303.346 81.8651L303.347 81.8594L372.013 51.1816L314.58 92.8982L314.574 92.8969L314.422 93.0123L315.106 93.9603L316.105 93.2335L372.702 52.1308C372.925 51.9725 373.085 51.7414 373.156 51.4773C373.226 51.2132 373.202 50.9329 373.088 50.6847C372.973 50.4365 372.776 50.2361 372.53 50.1182C372.283 50.0002 372.004 49.9722 371.739 50.0388C371.674 50.0542 371.611 50.076 371.55 50.1038L302.83 80.8113L302.57 80.9262Z" fill="#3F3D56"/>
<path d="M125.88 162.705L122.91 191.773L122.852 192.37L121.969 200.99L114.72 271.967V271.978L113.311 285.749C113.861 286.489 114.348 287.274 114.766 288.096C116.044 290.619 116.668 293.422 116.582 296.249C116.496 299.076 115.703 301.836 114.276 304.277C110.739 303.388 107.251 302.373 103.811 301.234C96.6958 298.891 89.7564 296.044 83.0456 292.713C83.7436 288.869 85.7493 285.384 88.7222 282.852L96.0007 195.308L96.6379 187.63L98.7131 162.705H125.88Z" fill="#FFB8B8"/>
<path d="M105.064 83.5337C90.0538 68.5074 90.0538 44.145 105.064 29.1187C120.075 14.0924 144.412 14.0924 159.422 29.1187C174.432 44.145 174.432 68.5074 159.422 83.5337C144.412 98.5599 120.075 98.5599 105.064 83.5337Z" fill="#FFB8B8"/>
<path d="M203.885 215.135C203.879 215.212 203.873 215.288 203.867 215.358C203.74 216.859 203.136 218.28 202.144 219.413C201.152 220.546 199.824 221.331 198.354 221.655L140.992 234.196C140.495 234.305 139.987 234.36 139.478 234.36C137.94 234.36 136.444 233.854 135.22 232.92C133.996 231.987 133.112 230.677 132.703 229.193C132.58 228.736 132.445 228.268 132.299 227.782V227.776C130.364 221.198 126.909 212.244 121.969 200.99C120.852 198.445 119.658 195.778 118.386 192.99C118.151 192.475 117.912 191.955 117.678 191.434C115.053 185.728 112.124 179.552 108.891 172.905C107.309 169.657 106.115 166.233 105.331 162.705C103.249 153.391 104.071 143.662 107.687 134.831C108.424 133.033 109.273 131.283 110.23 129.593C114.006 122.93 119.355 117.295 125.811 113.183C132.266 109.07 139.631 106.604 147.259 106.002C148.47 105.903 149.674 105.856 150.884 105.856C162.988 105.909 174.606 110.629 183.324 119.035C188.468 124.028 192.374 130.157 194.73 136.932C194.882 137.359 195.022 137.792 195.162 138.225C197.322 145.079 199.056 152.061 200.354 159.129C201.131 163.325 201.763 167.463 202.271 171.495C204.054 185.969 204.594 200.569 203.885 215.135Z" fill="#6D64C7"/>
<path d="M229.146 288.663C194.297 308.492 153.145 314.086 114.276 304.277C110.739 303.388 107.251 302.373 103.811 301.234C106.863 291.274 110.505 281.504 114.72 271.978V271.967C121.747 256.195 128.201 246.545 131.346 242.284C131.863 241.578 132.204 240.759 132.339 239.894C132.474 239.03 132.401 238.146 132.124 237.315L131.147 234.384C130.776 233.274 130.687 232.089 130.888 230.937C131.089 229.784 131.574 228.7 132.299 227.782V227.776C132.363 227.694 132.434 227.612 132.504 227.53C158.057 198.386 202.604 214.287 203.055 214.451L203.277 214.533L203.417 214.726C203.569 214.936 203.721 215.141 203.867 215.358C215.945 232.3 223.972 258.343 229.146 288.663Z" fill="#2F2E41"/>
<path d="M281.671 101.022C281.478 101.867 281.353 102.726 281.296 103.591L214.07 142.414L197.73 132.998L180.31 155.826L207.619 175.311C209.825 176.885 212.482 177.7 215.19 177.634C217.899 177.568 220.512 176.625 222.639 174.945L291.961 120.199C295.09 121.358 298.497 121.536 301.729 120.71C304.961 119.884 307.865 118.092 310.055 115.573C312.245 113.054 313.617 109.927 313.989 106.609C314.361 103.29 313.714 99.9366 312.136 96.9948C310.557 94.0529 308.121 91.6619 305.152 90.1397C302.183 88.6176 298.821 88.0364 295.513 88.4735C292.206 88.9107 289.11 90.3454 286.638 92.5869C284.165 94.8284 282.432 97.7704 281.671 101.022Z" fill="#FFB8B8"/>
<path d="M213.039 141.818V141.824C212.796 142.705 212.383 143.53 211.823 144.253L200.354 159.129L194.887 166.228L190.094 172.443C189.476 173.245 188.692 173.904 187.797 174.376C186.901 174.848 185.915 175.12 184.904 175.176C183.894 175.231 182.884 175.068 181.942 174.698C181 174.327 180.15 173.758 179.448 173.028L162.038 154.933L154.853 147.46C150.771 144.271 148.118 139.592 147.477 134.448C146.836 129.304 148.259 124.116 151.433 120.021C154.608 115.926 159.275 113.258 164.412 112.603C169.548 111.947 174.735 113.358 178.834 116.525L183.324 119.035L209.684 133.795C211.057 134.566 212.134 135.774 212.742 137.228C213.35 138.682 213.455 140.298 213.039 141.818H213.039Z" fill="#6D64C7"/>
<path d="M137.005 151.147L135.906 186.29L135.9 186.512C135.869 187.525 135.62 188.519 135.17 189.427C134.72 190.335 134.08 191.135 133.293 191.773C132.506 192.411 131.591 192.871 130.611 193.122C129.63 193.374 128.607 193.411 127.61 193.23L122.852 192.37L121.636 192.148H121.63L117.678 191.434L96.6377 187.63L92.6096 186.904C91.6143 186.723 90.6695 186.329 89.8396 185.75C89.0097 185.171 88.314 184.42 87.7999 183.548C87.2858 182.675 86.9652 181.703 86.86 180.695C86.7549 179.688 86.8675 178.67 87.1903 177.71L98.5377 144.077C99.4865 138.982 102.415 134.472 106.68 131.535C110.946 128.599 116.201 127.475 121.293 128.411C126.385 129.347 130.898 132.266 133.844 136.528C136.789 140.79 137.926 146.047 137.005 151.147Z" fill="#6C63FF"/>
<path d="M138.327 47.476C148.206 54.2445 161.177 61.2021 171.267 53.9942C177.892 49.2614 179.98 40.4973 177.293 32.8062C172.462 18.9754 159.188 12.8864 146.494 8.21913C129.993 2.15162 112.025 -2.67535 94.99 1.6699C77.9549 6.01515 62.8998 22.5259 65.9749 39.8524C68.4479 53.7861 81.5775 65.38 79.7136 79.4083C77.8377 93.5267 61.9768 100.958 47.9741 103.482C33.9714 106.005 18.3021 106.816 8.23894 116.884C-4.59848 129.728 -1.39276 152.686 10.6867 166.247C22.7662 179.808 40.9948 185.955 58.6583 190.134C82.0614 195.67 107.374 198.58 129.601 189.391C151.828 180.203 169.124 155.468 162.686 132.274C159.966 122.476 153.559 114.197 147.367 106.136C141.175 98.075 134.905 89.6458 132.543 79.756C130.575 71.5146 132.032 61.9459 137.491 55.7639C138.484 54.6818 139.109 53.3126 139.276 51.8528C139.444 50.393 139.144 48.9177 138.422 47.6388L138.327 47.476Z" fill="#2F2E41"/>
</g>
<defs>
<clipPath id="clip0_59_69">
<rect width="376" height="309" fill="white" transform="matrix(-1 0 0 1 376 0)"/>
</clipPath>
</defs>
</svg>
