<svg width="29" height="28" viewBox="0 0 29 28" fill="none" xmlns="http://www.w3.org/2000/svg">
<path d="M23 18C23.2652 18 23.5196 18.1054 23.7071 18.2929C23.8946 18.4804 24 18.7348 24 19V25C24 25.7957 23.6839 26.5587 23.1213 27.1213C22.5587 27.6839 21.7956 28 21 28H3C2.20435 28 1.44129 27.6839 0.87868 27.1213C0.316071 26.5587 0 25.7957 0 25V7.00002C0 6.20437 0.316071 5.44131 0.87868 4.8787C1.44129 4.31609 2.20435 4.00002 3 4.00002H6C6.26522 4.00002 6.51957 4.10537 6.70711 4.29291C6.89464 4.48045 7 4.7348 7 5.00002C7 5.26523 6.89464 5.51959 6.70711 5.70712C6.51957 5.89466 6.26522 6.00002 6 6.00002H3C2.73478 6.00002 2.48043 6.10537 2.29289 6.29291C2.10536 6.48045 2 6.7348 2 7.00002V25C2 25.2652 2.10536 25.5196 2.29289 25.7071C2.48043 25.8947 2.73478 26 3 26H21C21.2652 26 21.5196 25.8947 21.7071 25.7071C21.8946 25.5196 22 25.2652 22 25V19C22 18.7348 22.1054 18.4804 22.2929 18.2929C22.4804 18.1054 22.7348 18 23 18ZM27.71 7.29002L20.71 0.290017C20.5694 0.15126 20.3908 0.0572635 20.1968 0.0198894C20.0028 -0.0174847 19.8021 0.00343795 19.62 0.0800174C19.4374 0.155037 19.2811 0.282435 19.1707 0.446156C19.0604 0.609876 19.001 0.802592 19 1.00002V4.00002H17C14.6131 4.00002 12.3239 4.94823 10.636 6.63606C8.94821 8.32388 8 10.6131 8 13V19C8 19.2652 8.10536 19.5196 8.29289 19.7071C8.48043 19.8947 8.73478 20 9 20C9.26522 20 9.51957 19.8947 9.70711 19.7071C9.89464 19.5196 10 19.2652 10 19C10 17.1435 10.7375 15.363 12.0503 14.0503C13.363 12.7375 15.1435 12 17 12H19V15C19.001 15.1974 19.0604 15.3902 19.1707 15.5539C19.2811 15.7176 19.4374 15.845 19.62 15.92C19.8021 15.9966 20.0028 16.0175 20.1968 15.9801C20.3908 15.9428 20.5694 15.8488 20.71 15.71L27.71 8.71002C27.8037 8.61705 27.8781 8.50645 27.9289 8.38459C27.9797 8.26273 28.0058 8.13203 28.0058 8.00002C28.0058 7.86801 27.9797 7.7373 27.9289 7.61544C27.8781 7.49358 27.8037 7.38298 27.71 7.29002Z" fill="#7D8491"/>
</svg>
